<?xml version="1.0" encoding="UTF-8"?>
<svg width="18px" height="19px" viewBox="0 0 18 19" version="1.1" xmlns="http://www.w3.org/2000/svg" xmlns:xlink="http://www.w3.org/1999/xlink">
    <!-- Generator: Sketch 51.3 (57544) - http://www.bohemiancoding.com/sketch -->
    <title>user - simple-line-icons</title>
    <desc>Created with Sketch.</desc>
    <defs></defs>
    <g id="mobile" stroke="none" stroke-width="1" fill="none" fill-rule="evenodd">
        <g id="01-article-series-list-copy-3" transform="translate(-275.000000, -35.000000)" fill="#000000">
            <g id="nav" transform="translate(0.000000, 20.000000)">
                <path d="M284,16.25 C283.519529,16.25 283.044924,16.3408194 282.576172,16.5224609 C282.10742,16.7041025 281.685549,16.9355455 281.310547,17.2167969 C280.935545,17.4980483 280.63379,17.8027327 280.405273,18.1308594 C280.176757,18.458986 280.0625,18.7695298 280.0625,19.0625 L280.0625,21.875 C280.0625,22.425784 280.200194,23.128902 280.475586,23.984375 C280.750978,24.839848 281.181638,25.5019508 281.767578,25.9707031 C281.919923,26.0878912 282.034179,26.2373038 282.110352,26.4189453 C282.186524,26.6005868 282.212891,26.7910146 282.189453,26.9902344 C282.154297,27.1777353 282.081055,27.3505851 281.969727,27.5087891 C281.858398,27.666993 281.714845,27.787109 281.539062,27.8691406 L276.599609,30.2070312 C276.529297,30.2304689 276.432618,30.2861324 276.30957,30.3740234 C276.186523,30.4619145 276.125,30.6230457 276.125,30.8574219 L276.125,32 L291.857422,31.9824219 L291.857422,30.8925781 C291.857422,30.5878891 291.78418,30.3974613 291.637695,30.3212891 C291.49121,30.2451168 291.412109,30.2070312 291.400391,30.2070312 L286.496094,27.8867188 C286.320312,27.8046871 286.173829,27.6845711 286.056641,27.5263672 C285.939453,27.3681633 285.869141,27.1894541 285.845703,26.9902344 C285.822266,26.7910146 285.848632,26.6005868 285.924805,26.4189453 C286.000977,26.2373038 286.115234,26.0878912 286.267578,25.9707031 C286.876956,25.5019508 287.307616,24.8369184 287.55957,23.9755859 C287.811525,23.1142535 287.9375,22.4140652 287.9375,21.875 L287.9375,19.0625 C287.9375,18.757811 287.820314,18.4414079 287.585938,18.1132812 C287.351561,17.7851546 287.049807,17.4833998 286.680664,17.2080078 C286.311522,16.9326158 285.889651,16.7041025 285.415039,16.5224609 C284.940427,16.3408194 284.468752,16.25 284,16.25 Z M284,15.125 C284.621097,15.125 285.233395,15.2421863 285.836914,15.4765625 C286.440433,15.7109387 286.97949,16.0156231 287.454102,16.390625 C287.928713,16.7656269 288.315428,17.1874977 288.614258,17.65625 C288.913087,18.1250023 289.0625,18.5937477 289.0625,19.0625 L289.0625,21.875 C289.0625,22.2148454 289.027344,22.6074196 288.957031,23.0527344 C288.886718,23.4980491 288.769532,23.9521461 288.605469,24.4150391 C288.441405,24.877932 288.224611,25.32324 287.955078,25.7509766 C287.685546,26.1787131 287.357424,26.5449204 286.970703,26.8496094 L291.875,29.1875 C291.875,29.1875 292.059568,29.290038 292.428711,29.4951172 C292.797853,29.7001963 292.982422,29.9667952 292.982422,30.2949219 L292.982422,32 C292.982422,32.304689 292.874025,32.5654286 292.657227,32.7822266 C292.440429,32.9990245 292.179689,33.1074219 291.875,33.1074219 L276.125,33.1074219 C275.808592,33.1074219 275.541993,32.9990245 275.325195,32.7822266 C275.108397,32.5654286 275,32.304689 275,32 L275,30.2949219 C275,29.9902329 275.187498,29.7294933 275.5625,29.5126953 C275.937502,29.2958974 276.125,29.1875 276.125,29.1875 L281.064453,26.8496094 C280.666014,26.5332015 280.332033,26.152346 280.0625,25.7070312 C279.792967,25.2617165 279.573243,24.8076195 279.40332,24.3447266 C279.233398,23.8818336 279.113282,23.4306663 279.042969,22.9912109 C278.972656,22.5517556 278.9375,22.179689 278.9375,21.875 L278.9375,19.0625 C278.9375,18.5937477 279.083983,18.1250023 279.376953,17.65625 C279.669923,17.1874977 280.053709,16.7656269 280.52832,16.390625 C281.002932,16.0156231 281.544919,15.7109387 282.154297,15.4765625 C282.763675,15.2421863 283.378903,15.125 284,15.125 Z" id="user---simple-line-icons"></path>
            </g>
        </g>
    </g>
</svg>